<svg version="1.1" id="Layer_1" xmlns="http://www.w3.org/2000/svg" x="0" y="0" viewBox="0 0 552.8 205.3" style="enable-background:new 0 0 552.8 205.3" xml:space="preserve"><style>.st1{fill:#fff}</style><path class="st1" d="M34 61.2h2.4c2.4 0 4.8.7 6.8 2.1 1.5 1.1 3.1 3.4 5 6.9L63 97.7h31.4L81 71.8c-1.1-2-2.4-3.9-3.9-5.6-1.3-1.7-2.7-3.3-4.4-4.7a27.6 27.6 0 0 0-7.2-3.3c3.4-.6 6.7-1.8 9.7-3.5 7.7-4.4 12.2-12.8 11.9-21.6.1-5.2-1.3-10.2-4.2-14.5-2.6-3.9-6.5-6.8-10.9-8.2-4.5-1.5-11.1-2.2-19.6-2.2H6.3v89.4l27.7-.1V61.2zm0-34.9h12.2c5 0 8.5.8 10.3 2.3a8.9 8.9 0 0 1 1 11.8 7 7 0 0 1-4.5 2.8c-2.4.6-4.8 1-7.3 1.2H34V26.3zM127.1 180.2c-2.7 2.9-6.7 4.4-12 4.4-5.5 0-9.7-1.8-12.7-5.5s-4.5-10.5-4.5-20.4c0-8 1.3-13.9 3.8-17.6 3.3-5.1 8.1-7.6 14.4-7.6 2.6 0 5.2.5 7.5 1.7s4.2 2.8 5.7 4.9c1.2 1.8 2.1 3.9 2.7 6l24.4-5.4c-3.2-9.4-8-16.4-14.4-21-6.5-4.5-15.3-6.8-26.6-6.8-14.4 0-25.5 4-33.4 11.9-2.1 2.1-4 4.5-5.5 7.2-1.8-5.5-4.8-9.7-9-12.7-6-4.3-14.7-6.4-26.1-6.4-9.3 0-16.7 1.2-22 3.5-4.9 1.9-9 5.3-12 9.6-2.6 3.8-4 8.4-4 13-.2 6.7 2.7 13 7.8 17.3 5.1 4.6 13.8 8.2 25.9 10.9 7.5 1.6 12.2 3.4 14.2 5.2 1.9 1.5 3 3.8 3 6.2 0 2.5-1.2 4.8-3.2 6.4-2.1 1.9-5.2 2.8-9.1 2.8-5.3 0-9.4-1.9-12.2-5.5-1.8-2.3-2.9-5.5-3.5-9.8L0 174.2c.8 9 4.1 16.4 10 22.4 5.9 5.9 16.4 8.8 31.6 8.8 8.6 0 15.8-1.3 21.5-3.8 5.4-2.3 10-6.1 13.3-11 .6-.9 1.1-1.8 1.6-2.8 4.3 6.2 9.2 10.7 14.9 13.3 6.1 2.8 14.1 4.2 23.8 4.2 8 0 14.6-1.2 19.8-3.5 5.1-2.3 9.6-5.8 13-10.3 3.7-5.1 6.4-10.9 7.7-17l-24.2-7.3c-1.2 5.6-3.2 9.9-5.9 13zm-86.9-36.4c-4.9-1-8-2.1-9.3-3.3-1.2-.9-2-2.3-2-3.8-.1-2 .8-3.8 2.4-5 1.6-1.4 4-2.1 7.2-2.1 3.9-.1 7 .8 9.2 2.7 2.3 1.9 3.7 4.8 4.4 8.8l20.8-1.2c-1.4 4.3-2.3 9-2.6 14.3-1.3-.9-2.6-1.7-4.1-2.5-5.3-2.7-13.9-5.3-26-7.9zM317.5 112.8c-14.5 0-25.9 4.1-34 12.2-3.6 3.6-6.4 7.8-8.4 12.7v-23.3h-27.8v31.3h-30.2v-31.3h-27.6v89.4h27.6v-36.2h30.2v36.2h27.8v-23.4c.7 1.7 1.5 3.3 2.4 4.9 3.7 6.5 9.3 11.8 16.1 15.2 6.6 3.2 14.9 4.8 25 4.8 9.9 0 18.2-1.9 24.9-5.6 6.5-3.6 11.8-9 15.2-15.6 3.5-6.7 5.3-15.2 5.3-25.7 0-14.4-4-25.6-12.1-33.6s-19.5-12-34.4-12zm13.9 66c-3.3 3.9-7.9 5.8-13.8 5.8-5.8 0-10.4-2-13.7-5.9-3.3-4-5-10.5-5-19.5 0-9.1 1.7-15.6 5.1-19.5s8.3-6.1 13.4-5.9c5.8 0 10.4 1.9 13.8 5.8 3.4 3.8 5.1 10 5.1 18.4 0 10-1.6 16.9-4.9 20.8z"/><path class="st1" d="M509.7 181.8v-67.4H482v25c-2-5.7-5.1-10.5-9.1-14.5-5.9-5.9-13.6-9.6-23.2-11.1 1.2-.8 2.3-1.6 3.5-2.5 14-10.6 23.7-25 27.4-40.4 3.8-15.7 1-30.8-7.8-42.4-18.1-23.9-56.2-25.6-85-3.9-11.4 8.6-19.6 19.5-24.3 31.1-.1-.2-.2-.4-.3-.5-2.3-3.9-6.1-7.2-11.4-9.9-5.3-2.7-13.9-5.3-26-7.9-4.9-1-8-2.1-9.3-3.3-1.2-.9-2-2.3-2-3.8-.1-2 .9-3.8 2.4-5 1.6-1.3 4-2 7.2-2 3.9 0 6.9.9 9.2 2.8 2.3 1.9 3.7 4.8 4.4 8.8l26-1.5C362.6 24 359 17.2 353 13c-6-4.3-14.7-6.4-26.1-6.4-9.3 0-16.7 1.2-22 3.5-4.9 1.9-9 5.3-12 9.6-2.6 3.8-4 8.4-4 13-.2 6.7 2.7 13 7.8 17.3 5.1 4.6 13.8 8.2 25.9 10.9 7.4 1.6 12.1 3.4 14.1 5.2 1.9 1.5 3 3.8 3 6.2 0 2.5-1.2 4.9-3.2 6.4-2.1 1.9-5.2 2.8-9.1 2.8-5.3 0-9.3-1.8-12.2-5.4-1.8-2.3-2.9-5.5-3.5-9.8L285.4 68c.7 9 4.2 16.4 10.1 22.3s16.4 8.8 31.6 8.8c8.6 0 15.8-1.3 21.5-3.8 4.2-1.8 8-4.6 11-8 1.3 7.2 4.1 14 8.6 20 8.2 10.8 20.6 17.4 35.2 18.8-7.4 8-11.1 19-11.1 33 0 10.5 2.1 19.2 6.2 26.2 3.7 6.5 9.3 11.8 16.1 15.2 6.6 3.2 14.9 4.8 25 4.8 9.9 0 18.2-1.9 24.9-5.6a37.47 37.47 0 0 0 17.5-21v25.1h70.8v-22h-43.1zm-143-113.4c0-1.9-.1-3.8-.5-5.6 4-13.1 12.6-25.2 24.6-34.3 12.2-9.2 26.7-14.2 40.7-14.2 15.5 0 29.1 6.3 37.3 17.2 7.9 10.5 10.4 24.1 6.9 38.3-3.5 14.5-12.6 27.8-25.5 37.5-2.7 2.1-5.6 3.9-8.5 5.6-1 0-2.1-.1-3.2-.1-12.2 0-22.3 2.9-30 8.7h-1.4c-14.7-.7-27.1-6.8-34.9-17.2-5-6.6-7.9-14.7-8.3-23.4a30 30 0 0 0 2.8-12.5zm85.7 110.4c-3.3 3.9-7.9 5.8-13.8 5.8-5.8 0-10.4-2-13.7-5.9-3.3-4-5-10.5-5-19.5 0-9.1 1.7-15.6 5.1-19.5 3.3-3.9 8.3-6.1 13.4-5.9 5.8 0 10.4 1.9 13.8 5.8 3.4 3.8 5.1 10 5.1 18.4 0 10-1.6 16.9-4.9 20.8z"/><path class="st1" d="M406.9 88.7c-.5.4-1.2.7-1.9.7-.9 0-1.7-.3-2.4-.8-1-.8-1.9-1.8-2.6-2.9l-8.6 8c1.6 2.2 3.7 3.9 6.1 5.1 2.2 1 4.6 1.4 6.9 1 2.4-.4 5.2-1.7 8.5-4 2.8-1.8 4.9-4.3 6.2-7.3 1-2.4 1.2-5.1.5-7.6-1.2-3.3-2.8-6.3-4.9-9.1l-12.3-17.5-10 7 14 19.7c1.1 1.3 1.8 3 2.1 4.7.1 1.2-.6 2.4-1.6 3zM422 63.1c3 .3 7-.5 12.1-2.6 3.1-1.3 5.2-1.8 6.4-1.7.3 0 .6.1.9.2 1.8.6 2.8 2.6 2.2 4.4-.4 1.4-1.4 2.5-2.6 3.3a6.4 6.4 0 0 1-5.8 1.1c-1.4-.5-2.7-1.4-3.7-2.6l-9.1 7.2c2.3 2.9 5.5 4.9 9.4 5.5 3.6.6 8.1-1 13.6-4.8 2.7-1.8 5-4.1 6.8-6.8 1.4-2.2 2.1-4.7 2-7.3-.1-2.5-.9-4.9-2.3-6.9a10.3 10.3 0 0 0-4.6-3.9c-2.1-.9-4.4-1.1-6.6-.7-2.6.4-6.4 1.6-11.4 3.7-2 .9-3.4 1.3-4.2 1.2-.7 0-1.3-.4-1.7-.9-.5-.7-.7-1.6-.4-2.4.4-1.1 1.1-2 2.1-2.6l.3-.3a5.4 5.4 0 0 1 7.5 1l9-7.1c-2.8-3.1-5.8-4.6-9-4.6s-6.9 1.4-11.1 4.3c-2.8 1.8-5.1 4.1-7 6.8a11.5 11.5 0 0 0-1.9 6.5c.1 2 .7 4 1.9 5.7 1.6 2.5 4.3 4 7.2 4.3z"/></svg>